<?xml version="1.0" encoding="utf-8"?>
<!-- Generator: Adobe Illustrator 25.2.3, SVG Export Plug-In . SVG Version: 6.00 Build 0)  -->
<svg version="1.1" id="Layer_1" xmlns="http://www.w3.org/2000/svg" xmlns:xlink="http://www.w3.org/1999/xlink" x="0px" y="0px"
	 viewBox="0 0 64 64" style="enable-background:new 0 0 64 64;" xml:space="preserve">
<path d="M29,22h6v-5h5v-6h-5V6h-6v5h-5v6h5V22z M26,15v-2h5V8h2v5h5v2h-5v5h-2v-5H26z"/>
<path d="M62,18v-8H43.3c-2.2-6.2-9-9.5-15.3-7.3c-3.4,1.2-6.1,3.9-7.3,7.3H2v8h5v37H2v7h60v-7h-5V18H62z M60,12v4H43.8
	c0.1-0.7,0.2-1.3,0.2-2c0-0.7-0.1-1.3-0.2-2H60z M32,4c5.5,0,10,4.5,10,10s-4.5,10-10,10s-10-4.5-10-10C22,8.5,26.5,4,32,4z M4,16
	v-4h16.2c-0.1,0.7-0.2,1.3-0.2,2c0,0.7,0.1,1.3,0.2,2H4z M60,57v3H4v-3H60z M39,55H25v-9c0-3.9,3.1-7,7-7s7,3.1,7,7V55z M55,55H41
	v-9c0-5-4-9-9-9s-9,4-9,9l0,0v9H9V18h11.7c2.2,6.2,9,9.5,15.3,7.3c3.4-1.2,6.1-3.9,7.3-7.3H55V55z"/>
<path d="M19,28h26v2H19V28z M19,32h26v2H19V32z"/>
</svg>
