<svg viewBox="0 0 64 64" xmlns="http://www.w3.org/2000/svg"><path d="M29 22h6v-5h5v-6h-5V6h-6v5h-5v6h5zm-3-7v-2h5V8h2v5h5v2h-5v5h-2v-5z"/><path d="M62 18v-8H43.3a11.98 11.98 0 0 0-22.6 0H2v8h5v37H2v7h60v-7h-5V18zm-2-6v4H43.82a11.976 11.976 0 0 0 .18-2 11.976 11.976 0 0 0-.18-2zM32 4a10 10 0 1 1-10 10A10.011 10.011 0 0 1 32 4zM4 16v-4h16.18a11.976 11.976 0 0 0-.18 2 11.976 11.976 0 0 0 .18 2H4zm56 41v3H4v-3h56zm-21-2H25v-9a7 7 0 0 1 14 0zm16 0H41v-9a9 9 0 0 0-18 0v9H9V18h11.7a11.98 11.98 0 0 0 22.6 0H55z"/><path d="M19 28h26v2H19zM19 32h26v2H19z"/></svg>