<svg viewBox="0 0 48 48" xmlns="http://www.w3.org/2000/svg"><path d="M22.632 10.508h6.293v7.863a.75.75 0 0 0 1.5 0V9.758a.75.75 0 0 0-.75-.75h-7.043a.75.75 0 0 0 0 1.5zM28.925 24.4v7.138a.75.75 0 0 0 1.5 0V24.4a.75.75 0 0 0-1.5 0zM29.675 35.97a.75.75 0 0 0-.75.75v9.78H1.5V10.508h6.363a.75.75 0 0 0 0-1.5H.75a.75.75 0 0 0-.75.75V47.25a.75.75 0 0 0 .75.75h28.925a.75.75 0 0 0 .75-.75V36.72a.75.75 0 0 0-.75-.75z"/><path d="M27.058 19.121a.75.75 0 0 0 .75-.75v-6a.75.75 0 0 0-.75-.75H3.367a.75.75 0 0 0-.75.75v32.262a.75.75 0 0 0 .75.75h23.691a.75.75 0 0 0 .75-.75v-7.359a.75.75 0 0 0-1.5 0v6.609H4.117V13.125h22.191v5.246a.75.75 0 0 0 .75.75z"/><path d="M26.308 23.421v8.96a.75.75 0 0 0 1.5 0v-8.96a.75.75 0 0 0-1.5 0zM10.319 10.508h9.786a.75.75 0 0 0 .729-.929l-.651-2.645a.75.75 0 0 0-.728-.572H10.97a.75.75 0 0 0-.728.572l-.651 2.645a.75.75 0 0 0 .728.929zm1.239-2.646h7.309l.281 1.146h-7.872z"/><path d="M47.25 0h-1.7a.75.75 0 0 0 0 1.5h.95v6.107a5.753 5.753 0 0 1-11.506 0V1.5h1.363a.75.75 0 0 0 0-1.5h-2.113a.75.75 0 0 0-.75.75v6.857A7.263 7.263 0 0 0 40 14.821v2.153c0 10.5-7.437 17.005-14.328 17.005a6.052 6.052 0 0 1-6.215-6.28 6.061 6.061 0 0 1 1.611-4.216 6.794 6.794 0 0 1 5.078-1.911c2.69 0 5.775 1.842 9.169 5.473a.75.75 0 1 0 1.1-1.024c-3.689-3.947-7.143-5.949-10.265-5.949a8.248 8.248 0 0 0-6.164 2.377 7.553 7.553 0 0 0-2.025 5.25 7.59 7.59 0 0 0 7.715 7.78c9.777 0 15.828-9.6 15.828-18.5v-2.158A7.263 7.263 0 0 0 48 7.607V.75a.75.75 0 0 0-.75-.75z"/><path d="M44.023 34.943a3.534 3.534 0 0 0-.924.137 58.732 58.732 0 0 0-3.7-5.489.75.75 0 1 0-1.194.908 58.5 58.5 0 0 1 3.56 5.273 3.549 3.549 0 1 0 2.258-.829zm0 5.642a2.071 2.071 0 1 1 2.071-2.071 2.073 2.073 0 0 1-2.071 2.071zM20.4 18.137a.75.75 0 0 0-.75-.75H7.5a.75.75 0 1 0 0 1.5h12.154a.75.75 0 0 0 .746-.75zM15.976 22.671H7.5a.75.75 0 1 0 0 1.5h8.474a.75.75 0 0 0 0-1.5zM7.5 29.455h8.474a.75.75 0 0 0 0-1.5H7.5a.75.75 0 0 0 0 1.5zM7.5 34.739h8.474a.75.75 0 0 0 0-1.5H7.5a.75.75 0 0 0 0 1.5zM7.5 40.023h15.459a.75.75 0 0 0 0-1.5H7.5a.75.75 0 0 0 0 1.5z"/></svg>