<svg viewBox="0 0 512 512" xmlns="http://www.w3.org/2000/svg"><path d="M226.887 163.621a26.039 26.039 0 0 0 26.038-26.039v-13.25a26.039 26.039 0 0 0-52.077 0v13.25a26.039 26.039 0 0 0 26.039 26.04z"/><path d="M264.996 283.924a130.101 130.101 0 0 1-1.92-51.904l.625-3.772a29.294 29.294 0 0 1 18.573-22.63l51.29-19.324a4.796 4.796 0 0 0 3.105-4.488v-13.839a4.797 4.797 0 0 0-6.05-4.63l-58.81 15.926.006-.036-32.34 8.707a48.422 48.422 0 0 1-25.175 0l-32.34-8.707.006.035-58.81-15.925a4.797 4.797 0 0 0-6.05 4.63v13.839a4.796 4.796 0 0 0 3.105 4.488l51.289 19.324a29.294 29.294 0 0 1 18.573 22.63l.624 3.772a130.1 130.1 0 0 1-1.919 51.904l-26.756 110.33a2.307 2.307 0 0 0 2.242 2.85h11.648a17.802 17.802 0 0 0 16.903-12.215l27.826-84.197a6.578 6.578 0 0 1 12.492 0l27.826 84.197a17.802 17.802 0 0 0 16.903 12.216h11.648a2.307 2.307 0 0 0 2.242-2.851z"/><path d="M477.332 310.562a79.762 79.762 0 1 0-45.387 71.943l31.447 48.342 10.898-7.088-31.116-47.832a79.68 79.68 0 0 0 34.158-65.365zm-146.46 0a66.73 66.73 0 1 1 66.73 66.73 66.806 66.806 0 0 1-66.73-66.73zM324.983 91.15a191.618 191.618 0 0 0-36.608-16.836l-4.156 12.318a178.576 178.576 0 0 1 34.12 15.692zM63.71 182.264l-11.83-5.39A191.277 191.277 0 0 0 39.135 215.1l12.699 2.787a178.174 178.174 0 0 1 11.876-35.624zM373.236 153.014l10.608-7.514a193.606 193.606 0 0 0-26.58-30.258l-8.82 9.55a180.534 180.534 0 0 1 24.792 28.222zM47.668 256.486l.005-1.275-13-.086-.005 1.36a193.594 193.594 0 0 0 3.903 38.718l12.736-2.605a180.548 180.548 0 0 1-3.639-36.112zM411.674 219.855l3.797-.748a191.27 191.27 0 0 0-11.918-38.485l-11.943 5.134a178.253 178.253 0 0 1 10.531 33.134 91.812 91.812 0 0 1 9.533.965zM226.857 77.267h.03a182.106 182.106 0 0 1 20.681 1.18l1.484-12.914a194.854 194.854 0 0 0-22.164-1.266h-.032c-6.017 0-12.095.284-18.064.841l1.21 12.944c5.568-.521 11.238-.785 16.855-.785zM245.037 434.797l1.301 12.936a191.827 191.827 0 0 0 39.436-8.217l-3.979-12.377a178.725 178.725 0 0 1-36.758 7.658zM316.131 411.94l6.485 11.268a193.237 193.237 0 0 0 32.614-23.625l-8.683-9.676a180.17 180.17 0 0 1-30.416 22.033zM50.764 333.601a192.317 192.317 0 0 0 19.957 34.982l10.555-7.59a179.265 179.265 0 0 1-18.605-32.612zM166.693 439.09a191.652 191.652 0 0 0 39.385 8.501l1.391-12.926a178.585 178.585 0 0 1-36.708-7.923zM108.175 122.22l-8.614-9.736a193.53 193.53 0 0 0-27.22 29.686l10.446 7.739a180.529 180.529 0 0 1 25.388-27.689zM97.514 398.654a193.188 193.188 0 0 0 32.452 23.862l6.563-11.22a180.1 180.1 0 0 1-30.263-22.256zM173.19 85.449l-3.891-12.405a191.62 191.62 0 0 0-36.956 16.043l6.402 11.315a178.56 178.56 0 0 1 34.444-14.953z"/><path d="M434.332 310.562a36.772 36.772 0 0 1-36.73 36.73v13a49.787 49.787 0 0 0 49.73-49.73z"/></svg>