<svg viewBox="0 0 512 512" xmlns="http://www.w3.org/2000/svg"><path d="m138.402 147.125 4.84-5.966a6 6 0 1 0-9.319-7.56l-3.94 4.857a35.451 35.451 0 1 0 8.419 8.67zm-29.259 43.41a23.44 23.44 0 1 1 13.27-42.748l-13.97 17.22-6.906-6.15a6 6 0 0 0-7.982 8.96l11.598 10.33a6 6 0 0 0 3.99 1.519c.161 0 .323-.007.485-.02a6.003 6.003 0 0 0 4.175-2.2l16.526-20.37a23.431 23.431 0 0 1-21.186 33.459zM138.402 245.302l4.84-5.966a6 6 0 1 0-9.319-7.56l-3.94 4.857a35.451 35.451 0 1 0 8.419 8.669zm-29.259 43.41a23.44 23.44 0 1 1 13.27-42.748l-13.97 17.219-6.906-6.15a6 6 0 0 0-7.982 8.96l11.598 10.33a6 6 0 0 0 3.99 1.52c.161 0 .323-.007.485-.02a5.999 5.999 0 0 0 4.175-2.2l16.526-20.37a23.431 23.431 0 0 1-21.186 33.458zM109.143 324.687a35.44 35.44 0 1 0 35.44 35.44 35.48 35.48 0 0 0-35.44-35.44zm0 58.879a23.44 23.44 0 1 1 23.44-23.44 23.466 23.466 0 0 1-23.44 23.44zM280.118 155.583a6 6 0 0 0-6-6H171.943a6 6 0 1 0 0 12h102.175a6 6 0 0 0 6-6zM242.532 178.24h-70.589a6 6 0 0 0 0 12h70.59a6 6 0 0 0 0-12zM242.532 242.365h-70.589a6 6 0 1 0 0 12h70.59a6 6 0 1 0 0-12zM242.532 271.022h-70.589a6 6 0 1 0 0 12h70.59a6 6 0 1 0 0-12zM496.804 358.818a26.546 26.546 0 0 0-24.764-24.797 27.04 27.04 0 0 0-1.71-.054 26.464 26.464 0 0 0-19.847 8.93 84.29 84.29 0 0 0-11.795-28.457c.535.032 1.07.048 1.603.048a26.527 26.527 0 1 0-26.482-24.927 84.292 84.292 0 0 0-28.456-11.795 26.525 26.525 0 0 0-15.922-46.321 27.043 27.043 0 0 0-1.675-.053 26.525 26.525 0 0 0-17.6 46.374 84.287 84.287 0 0 0-28.456 11.795 26.526 26.526 0 1 0-45.234 17.16 26.346 26.346 0 0 0 18.753 7.767c.532 0 1.068-.016 1.603-.048a84.292 84.292 0 0 0-11.795 28.456 26.463 26.463 0 0 0-19.847-8.93c-.567 0-1.142.02-1.71.055a26.528 26.528 0 1 0 21.557 44.072 84.288 84.288 0 0 0 11.795 28.456 26.668 26.668 0 0 0-1.603-.048 26.527 26.527 0 1 0 26.481 24.927 84.301 84.301 0 0 0 28.456 11.795 26.525 26.525 0 0 0 15.922 46.321c.557.035 1.12.052 1.676.052a26.525 26.525 0 0 0 17.598-46.373 84.287 84.287 0 0 0 28.457-11.795 26.526 26.526 0 1 0 45.234-17.16 26.347 26.347 0 0 0-18.752-7.767c-.533 0-1.07.016-1.604.048a84.287 84.287 0 0 0 11.795-28.457 26.526 26.526 0 0 0 46.322-19.274zm-26.475 16.204a14.491 14.491 0 0 1-11.272-5.367 10.276 10.276 0 0 0-7.993-3.704h-7.605a3.697 3.697 0 0 0-3.66 3.28 72.212 72.212 0 0 1-14.969 36.079 3.674 3.674 0 0 0 .317 4.86l5.374 5.375a10.36 10.36 0 0 0 7.282 3.083 9.685 9.685 0 0 0 .99-.05 14.634 14.634 0 0 1 1.497-.077 14.528 14.528 0 1 1-14.462 13.123 10.083 10.083 0 0 0-2.815-8.155l-5.583-5.582a3.708 3.708 0 0 0-2.623-1.088 3.606 3.606 0 0 0-2.237.77 72.212 72.212 0 0 1-36.078 14.971 3.697 3.697 0 0 0-3.281 3.66v7.604a10.276 10.276 0 0 0 3.705 7.994 14.525 14.525 0 0 1-9.162 25.799q-.461 0-.93-.03a14.525 14.525 0 0 1-8.396-25.632 10.63 10.63 0 0 0 3.87-8.13v-7.606a3.697 3.697 0 0 0-3.28-3.659 72.211 72.211 0 0 1-36.08-14.97 3.604 3.604 0 0 0-2.236-.771 3.71 3.71 0 0 0-2.623 1.088l-5.375 5.374a10.276 10.276 0 0 0-3.033 8.272 14.528 14.528 0 1 1-14.453-13.032q.704 0 1.407.067.526.051 1.05.051a9.98 9.98 0 0 0 7.105-2.866l5.583-5.583a3.674 3.674 0 0 0 .316-4.86 72.212 72.212 0 0 1-14.969-36.078 3.697 3.697 0 0 0-3.66-3.281h-7.604a10.276 10.276 0 0 0-7.994 3.704 14.527 14.527 0 1 1-12.22-23.658q.478-.03.949-.03a14.49 14.49 0 0 1 11.134 5.2 10.63 10.63 0 0 0 8.131 3.871h7.604a3.697 3.697 0 0 0 3.66-3.281 72.211 72.211 0 0 1 14.969-36.079 3.674 3.674 0 0 0-.317-4.86l-5.374-5.374a10.36 10.36 0 0 0-7.282-3.084 9.717 9.717 0 0 0-.99.05 14.528 14.528 0 1 1 12.965-13.046 10.083 10.083 0 0 0 2.815 8.155l5.583 5.583a3.709 3.709 0 0 0 2.623 1.088 3.606 3.606 0 0 0 2.237-.771 72.211 72.211 0 0 1 36.078-14.97 3.697 3.697 0 0 0 3.281-3.66v-7.604a10.276 10.276 0 0 0-3.704-7.994 14.525 14.525 0 0 1 9.161-25.799q.462 0 .93.03a14.525 14.525 0 0 1 8.397 25.632 10.63 10.63 0 0 0-3.87 8.13v7.606a3.697 3.697 0 0 0 3.28 3.66 72.212 72.212 0 0 1 36.079 14.969 3.606 3.606 0 0 0 2.236.77 3.71 3.71 0 0 0 2.624-1.087l5.374-5.374a10.277 10.277 0 0 0 3.033-8.272 14.528 14.528 0 1 1 14.452 13.032q-.704 0-1.406-.068-.526-.05-1.05-.05a9.98 9.98 0 0 0-7.104 2.866l-5.583 5.583a3.674 3.674 0 0 0-.317 4.86 72.211 72.211 0 0 1 14.97 36.078 3.697 3.697 0 0 0 3.66 3.281h7.604a10.63 10.63 0 0 0 8.131-3.87 14.489 14.489 0 0 1 11.135-5.2c.314 0 .63.01.948.03a14.528 14.528 0 0 1-.949 29.024z"/><path d="M409.105 364.057a19.956 19.956 0 0 0-24.108-.332 14.911 14.911 0 1 0-4.065 28.161 19.969 19.969 0 1 0 28.173-27.83zM340.5 320.807a16.398 16.398 0 1 0 16.397 16.398 16.417 16.417 0 0 0-16.398-16.398zM144.969 68.015h47.114a6 6 0 0 0 0-12H144.97a6 6 0 0 0 0 12zM215.64 68.015h15.596a6 6 0 0 0 0-12H215.64a6 6 0 0 0 0 12z"/><path d="M329.785 452.21a39.992 39.992 0 0 1-6.61 8.77 39.533 39.533 0 0 1-57.6-1.82 38.854 38.854 0 0 1-3.97-5.36H54.755a12.611 12.611 0 0 1-12.61-12.62V81.52a12.611 12.611 0 0 1 12.61-12.62h55.815v15.047a17.698 17.698 0 0 0 17.678 17.678h119.709a17.698 17.698 0 0 0 17.678-17.677V68.9h55.81a12.62 12.62 0 0 1 12.62 12.62v155.69a39.77 39.77 0 0 1 27-18.26V72.34a30.442 30.442 0 0 0-30.44-30.44h-64.99v-1.82a17.698 17.698 0 0 0-17.678-17.678h-119.71a17.698 17.698 0 0 0-17.677 17.678v1.82H45.575a30.433 30.433 0 0 0-30.43 30.44v378.03a30.431 30.431 0 0 0 30.43 30.43h285.05c.6 0 1.19-.02 1.78-.05a39.186 39.186 0 0 1-2.62-28.54zM122.57 40.082a5.684 5.684 0 0 1 5.678-5.677h119.709a5.684 5.684 0 0 1 5.678 5.677v43.867a5.684 5.684 0 0 1-5.678 5.677h-119.71a5.684 5.684 0 0 1-5.677-5.677z"/></svg>