<svg height="32" width="32" xml:space="preserve" xmlns="http://www.w3.org/2000/svg"><path fill="none" d="M0 0h32v32H0z"/><path d="M24 12H8v2h16v-2zm4 3.518V4H4v24h11.518A8.99 8.99 0 0 0 23 32a9.002 9.002 0 0 0 9-9 8.99 8.99 0 0 0-4-7.482zM15.517 18a8.952 8.952 0 0 0-.994 2H8v2h6.058A9.165 9.165 0 0 0 14 23c0 1.054.19 2.061.523 3H6V6h20v8.523A8.951 8.951 0 0 0 17.348 16H8v2h7.517zM23 29.883A6.898 6.898 0 0 1 16.115 23 6.897 6.897 0 0 1 23 16.116 6.897 6.897 0 0 1 29.883 23 6.898 6.898 0 0 1 23 29.883z"/><path d="m18 23 2-2 2 2 4-4 2 2-6 6z"/></svg>