<svg viewBox="0 0 64 64" xmlns="http://www.w3.org/2000/svg"><path d="M56 20v8h-5a5.006 5.006 0 0 0-5 5v3H15a6.996 6.996 0 0 0-6.921 6H8v-8H2v28h6V52h48v10h6V20zm-8 13a3.003 3.003 0 0 1 3-3h5v12h-8zm-36.53 6.464A4.929 4.929 0 0 1 15 38h31v4H10.1a4.92 4.92 0 0 1 1.37-2.536zM6 60H4V36h2v24zm2-10v-6h48v6zm52 10h-2V22h2zM29 25h6v-6h6v-6h-6V7h-6v6h-6v6h6zm-4-8v-2h6V9h2v6h6v2h-6v6h-2v-6z"/><path d="M32 30a14 14 0 1 0-14-14 14.016 14.016 0 0 0 14 14zm0-26a12 12 0 1 1-12 12A12.013 12.013 0 0 1 32 4z"/></svg>