<?xml version="1.0" encoding="utf-8"?>
<!-- Generator: Adobe Illustrator 25.2.3, SVG Export Plug-In . SVG Version: 6.00 Build 0)  -->
<svg version="1.1" id="Covid-19_1_" xmlns="http://www.w3.org/2000/svg" xmlns:xlink="http://www.w3.org/1999/xlink" x="0px"
	 y="0px" viewBox="0 0 64 64" style="enable-background:new 0 0 64 64;" xml:space="preserve">
<style type="text/css">
	.st0{fill:none;stroke:#000000;stroke-width:2;stroke-linejoin:round;stroke-miterlimit:10;}
</style>
<g id="_x33_0-Emergency_hotline">
	<path class="st0" d="M27,20h3v-3h4v3h3v4h-3v3h-4v-3h-3V20z"/>
	<path class="st0" d="M48,4c0-2-1-3-3-3H19c-2,0-3,1-3,3v56c0,2,1,3,3,3h26c2,0,3-1,3-3V4z"/>
	<path class="st0" d="M34,55h-4c0,0-2,0-2,2s2,2,2,2h4c0,0,2,0,2-2S34,55,34,55z M16,7h32 M28,57H16 M48,57H36 M27,49v-1l2-6h1l2,6
		v1 M27,47h5 M35,41v6c0,1,0,1,1,1h2 M40,41v6c0,1,0,1,1,1h2 M25,48h-1c-1,0-2-1-2-2v-2c0-1,1-2,2-2h1 M43,22c0-6.1-4.9-11-11-11
		s-11,4.9-11,11c0,5,3.3,9.1,7.8,10.5L32,38l3.2-5.5C39.7,31.1,43,27,43,22z"/>
</g>
</svg>
