<svg id="Covid-19_1_" style="enable-background:new 0 0 64 64" version="1.1" viewBox="0 0 64 64" xml:space="preserve" xmlns="http://www.w3.org/2000/svg"><style>.st0{fill:none;stroke:#000;stroke-width:2;stroke-linejoin:round;stroke-miterlimit:10}</style><g id="_x33_0-Emergency_hotline"><path class="st0" d="M27 20h3v-3h4v3h3v4h-3v3h-4v-3h-3z"/><path class="st0" d="M48 4c0-2-1-3-3-3H19c-2 0-3 1-3 3v56c0 2 1 3 3 3h26c2 0 3-1 3-3V4z"/><path class="st0" d="M34 55h-4s-2 0-2 2 2 2 2 2h4s2 0 2-2-2-2-2-2zM16 7h32M28 57H16M48 57H36M27 49v-1l2-6h1l2 6v1M27 47h5M35 41v6c0 1 0 1 1 1h2M40 41v6c0 1 0 1 1 1h2M25 48h-1c-1 0-2-1-2-2v-2c0-1 1-2 2-2h1M43 22c0-6.08-4.92-11-11-11s-11 4.92-11 11c0 4.95 3.26 9.13 7.76 10.51L32 38l3.24-5.49C39.74 31.13 43 26.95 43 22z"/></g></svg>