<?xml version="1.0" encoding="utf-8"?>
<!-- Generator: Adobe Illustrator 25.2.3, SVG Export Plug-In . SVG Version: 6.00 Build 0)  -->
<svg version="1.1" id="Layer_1" xmlns="http://www.w3.org/2000/svg" xmlns:xlink="http://www.w3.org/1999/xlink" x="0px" y="0px"
	 viewBox="0 0 64 64" style="enable-background:new 0 0 64 64;" xml:space="preserve">
<path d="M57,21h-2v8h2c2.2,0,4-1.8,4-4S59.2,21,57,21z M45,44.1c-2.4,1.2-5.1,1.9-8,1.9s-5.6-0.7-8-1.9c-5.4-2.7-9.2-7.9-9.9-14.1
	h35.8C54.2,36.2,50.4,41.5,45,44.1z M55,20v1c-3.3,0-6-2.7-6-6v-1H21.2c-0.3,0-0.7,0-1-0.1c0,0-0.1,0-0.1,0c-2.5-0.5-4.6-2.4-5-5
	c-0.5-3.3,1.8-6.3,5.1-6.8c0,0,0,0,0.1,0C20.6,3.2,21.8,4,23,4h16C47.8,4,55,11.2,55,20z"/>
<circle cx="30" cy="25" r="2"/>
<circle cx="44" cy="25" r="2"/>
<path d="M37,54.9l9.4-5.1c-0.9-0.8-1.4-1.9-1.4-3v-0.4c-5.1,2.2-10.9,2.2-16,0v0.4c0,1.2-0.5,2.2-1.4,3L37,54.9z M25.3,50.8
	l-1.6,0.3L19,55.8V61h17v-4.4L25.3,50.8z"/>
<path d="M3,35c1.1,0,2,0.9,2,2c0-1.1,0.9-2,2-2s2,0.9,2,2c0-1.1,0.9-2,2-2s2,0.9,2,2V27c0-1.1,0.9-2,2-2s2,0.9,2,2v19h1v-2
	c0-2.2,1.8-4,4-4v10l-5,5v6H1V37C1,35.9,1.9,35,3,35z M63,55.4c0,0-0.1-0.1-0.1-0.1c-1.4-1.3-3.2-2.2-5.1-2.6l-9.1-1.9L38,56.6V61
	h25V55.4z M56,59H43v-3h13V59z"/>
</svg>
