<svg style="enable-background:new 0 0 64 64" viewBox="0 0 64 64" xml:space="preserve" xmlns="http://www.w3.org/2000/svg"><path d="M57 21h-2v8h2a4 4 0 0 0 0-8zM45 44.12c-2.41 1.2-5.12 1.88-8 1.88s-5.59-.68-8-1.88c-5.36-2.66-9.2-7.91-9.89-14.12h35.78c-.69 6.21-4.53 11.46-9.89 14.12zM55 20v1c-3.31 0-6-2.69-6-6v-1H21.21c-.33 0-.67-.03-.99-.08-.05-.01-.1-.01-.14-.02-2.54-.46-4.65-2.42-5.02-5.03a6.001 6.001 0 0 1 5.14-6.81A3.002 3.002 0 0 0 23 4h16c8.84 0 16 7.16 16 16z" style="fill:#3a4249"/><circle cx="30" cy="25" r="2" style="fill:#3a4249"/><circle cx="44" cy="25" r="2" style="fill:#3a4249"/><path d="m37 54.861 9.363-5.107A4.003 4.003 0 0 1 45 46.75v-.425a19.928 19.928 0 0 1-16 0v.425a4.003 4.003 0 0 1-1.363 3.004L37 54.861zM25.329 50.773l-1.615.341L19 55.828V61h17v-4.407z" style="fill:#3a4249"/><path d="M3 35a2 2 0 0 1 2 2 2 2 0 1 1 4 0 2 2 0 1 1 4 0V27a2 2 0 1 1 4 0v19h1v-2a4 4 0 0 1 4-4v10l-5 5v6H1V37a2 2 0 0 1 2-2zM63 55.382c-.042-.039-.078-.084-.12-.122a11.062 11.062 0 0 0-5.07-2.56l-9.139-1.927L38 56.593V61h25v-5.618zM56 59H43v-3h13v3z" style="fill:#3a4249"/></svg>