<svg viewBox="0 0 96 96" xmlns="http://www.w3.org/2000/svg"><path d="M21 56v20.86A17.07 17.07 0 0 0 38 94h0a17.07 17.07 0 0 0 17-17.14V54" style="fill:none;stroke:#281a3b;stroke-linecap:round;stroke-linejoin:round;stroke-width:4px"/><circle cx="21" cy="48" r="8" style="fill:none;stroke:#281a3b;stroke-linecap:round;stroke-linejoin:round;stroke-width:4px"/><circle cx="21" cy="48" r="8" style="fill:none;stroke:#281a3b;stroke-linecap:round;stroke-linejoin:round;stroke-width:4px"/><path style="fill:none;stroke:#281a3b;stroke-linecap:round;stroke-linejoin:round;stroke-width:4px" d="m71.5 6 5-2-5-2v4z"/><path d="M36 4h-4.09C29 4 26.67 7 27 10.35 29.25 30.54 38.69 54 55 54s25.75-23.46 28-43.65C83.33 7 81 4 78.09 4H74" style="fill:none;stroke:#281a3b;stroke-linecap:round;stroke-linejoin:round;stroke-width:4px"/><path style="fill:none;stroke:#281a3b;stroke-linecap:round;stroke-linejoin:round;stroke-width:4px" d="m38.5 6-5-2 5-2v4z"/><circle cx="21" cy="48" r="2" style="fill:none;stroke:#281a3b;stroke-linecap:round;stroke-linejoin:round;stroke-width:4px"/></svg>