<svg viewBox="0 0 512 512" xmlns="http://www.w3.org/2000/svg"><path d="m485.818 42.364-15.602-15.602a4.5 4.5 0 0 0-6.365 0L448.25 42.364a4.5 4.5 0 0 0 3.183 7.683h9.602v45.281a6 6 0 0 0 12 0v-45.28h9.602a4.5 4.5 0 0 0 3.182-7.684zM206.884 366.93a35.357 35.357 0 0 0-10.8-18.359l-42.328-38.219a9.801 9.801 0 0 0-14.365 1.228c-6.224 7.974-8.125 16.816-5.352 24.897 1.734 5.051 5.111 10.337 8.736 15.042l-31.089-9.284a12.071 12.071 0 0 1-7.878-7.456l-4.194-11.725a31.553 31.553 0 0 0-29.627-20.842H41.052a14.21 14.21 0 0 0-13.75 17.793l12.228 48.034c2.66 10.748 5.498 19.428 15.6 25.203l73.1 41.8a17.636 17.636 0 0 1 8.845 15.029l.261 20.752.002.108q-.003.09-.003.179c0 16.354 20.535 29.166 46.75 29.166 20.708 0 38.642-8.147 44.625-20.272a19.137 19.137 0 0 0 1.377-12.753zm11.962 108.206c-3.467 7.026-16.52 14.14-34.761 14.14-19.044 0-35.75-8.49-35.75-18.166 0-.06 0-.119-.002-.178.003-.082.003-.165.002-.248l-.26-20.752a28.678 28.678 0 0 0-14.384-24.439l-73.1-41.8c-5.871-3.356-7.87-8.143-10.392-18.332l-12.25-48.12a3.21 3.21 0 0 1 3.103-4.029h3.258a5.506 5.506 0 0 0 .188.962l16.077 54.61a14.364 14.364 0 0 0 7.397 8.733l14.141 6.95a5.5 5.5 0 0 0 4.852-9.873l-14.141-6.95a3.308 3.308 0 0 1-1.705-1.995l-15.438-52.437h8.865l11.118 41.725a14.301 14.301 0 0 0 7.688 9.138l14.605 6.898a5.5 5.5 0 0 0 4.697-9.948l-14.606-6.897a3.29 3.29 0 0 1-1.767-2.07L76.187 314.18a20.525 20.525 0 0 1 13.071 12.586l4.195 11.725a23.116 23.116 0 0 0 15.086 14.286l50.192 14.988a5.5 5.5 0 0 0 5.265-9.348c-4.357-3.945-16.364-16.219-19.553-25.51-1.775-5.176.409-10.076 2.87-13.55l41.398 37.38a24.406 24.406 0 0 1 7.457 12.673L219.37 469.73a8.116 8.116 0 0 1-.524 5.406zM432.34 302.212h-28.934a31.555 31.555 0 0 0-29.629 20.848l-4.19 11.714a12.075 12.075 0 0 1-7.881 7.462l-31.09 9.283c3.626-4.705 7.003-9.99 8.737-15.042 2.773-8.081.873-16.923-5.352-24.897a9.802 9.802 0 0 0-14.365-1.227l-42.327 38.219a35.36 35.36 0 0 0-10.801 18.36l-23.203 100.32a19.136 19.136 0 0 0 1.377 12.751c5.983 12.126 23.917 20.273 44.626 20.273 26.214 0 46.749-12.812 46.749-29.167q0-.089-.003-.178l.002-.109.261-20.752a17.637 17.637 0 0 1 8.845-15.028l73.1-41.8c10.102-5.775 12.94-14.455 15.591-25.168l12.224-48.018a14.21 14.21 0 0 0-13.737-17.844zm3.09 15.08-12.245 48.104c-2.513 10.154-4.512 14.94-10.382 18.297l-73.101 41.8a28.679 28.679 0 0 0-14.383 24.439l-.261 20.752c-.001.083 0 .166.002.248l-.002.177c0 9.677-16.706 18.166-35.75 18.166-18.24 0-31.294-7.113-34.76-14.14a8.116 8.116 0 0 1-.525-5.405l23.202-100.32a24.41 24.41 0 0 1 7.457-12.674l41.398-37.38c2.461 3.475 4.645 8.376 2.87 13.55-3.18 9.263-15.193 21.556-19.553 25.51a5.5 5.5 0 0 0 5.265 9.348l50.191-14.987a23.12 23.12 0 0 0 15.09-14.292l4.19-11.714a20.53 20.53 0 0 1 13.073-12.59l-10.082 37.832a3.31 3.31 0 0 1-1.78 2.115l-14.605 6.898a5.5 5.5 0 1 0 4.697 9.947l14.605-6.897a14.323 14.323 0 0 0 7.7-9.185l11.106-41.679h8.865l-15.43 52.41a3.321 3.321 0 0 1-1.712 2.023l-15.149 7.444a5.5 5.5 0 1 0 4.852 9.873l15.148-7.444a14.377 14.377 0 0 0 7.405-8.76l16.07-54.584a5.506 5.506 0 0 0 .188-.962h3.257a3.21 3.21 0 0 1 3.09 4.08zM369.087 116.96a29.904 29.904 0 1 0-29.903-29.903 29.938 29.938 0 0 0 29.903 29.903zm0-47.808a17.904 17.904 0 1 1-17.903 17.905 17.924 17.924 0 0 1 17.903-17.905zM467.034 112.347a6 6 0 0 0-6 6v10.839a6 6 0 0 0 12 0v-10.84a6 6 0 0 0-6-6z"/><path d="M116.874 284.812h233.309a24.512 24.512 0 0 0 24.484-24.485v-56.402l-.206-41.288h2.581a8.147 8.147 0 0 0 7.994-6.4l3.733-16.65q1.323-.512 2.635-1.098l14.416 9.134a8.146 8.146 0 0 0 10.182-1.124l11.25-11.251a8.147 8.147 0 0 0 1.127-10.178l-9.138-14.418q.584-1.308 1.098-2.635l16.65-3.733a8.147 8.147 0 0 0 6.4-7.994V80.38a8.147 8.147 0 0 0-6.4-7.994l-16.65-3.733q-.512-1.325-1.097-2.635l9.135-14.418a8.144 8.144 0 0 0-1.126-10.179l-11.25-11.25a8.147 8.147 0 0 0-10.178-1.128l-14.419 9.138q-1.307-.584-2.636-1.098l-3.732-16.65a8.148 8.148 0 0 0-7.994-6.399h-15.91a8.148 8.148 0 0 0-7.994 6.4l-3.732 16.649q-1.327.513-2.637 1.099l-14.42-9.14a8.15 8.15 0 0 0-10.176 1.128l-11.25 11.251a8.146 8.146 0 0 0-1.127 10.178l9.138 14.419q-.586 1.308-1.098 2.635l-10.968 2.459a68.522 68.522 0 0 0-18.801-31.864 70.645 70.645 0 0 0-49.374-20.14h-1.76a69.009 69.009 0 0 0-68.737 63.916h-51.322A24.512 24.512 0 0 0 92.39 107.51v152.818a24.512 24.512 0 0 0 24.484 24.485zm205.63-204.908a8.149 8.149 0 0 0 5.96-5.37 42.575 42.575 0 0 1 2.14-5.14 8.25 8.25 0 0 0-.41-8.027l-8.63-13.617 6.939-6.939 13.62 8.632a8.146 8.146 0 0 0 8.025.409 42.54 42.54 0 0 1 5.135-2.14 8.15 8.15 0 0 0 5.374-5.963l3.523-15.716h9.813l3.524 15.717a8.148 8.148 0 0 0 5.371 5.962 42.647 42.647 0 0 1 5.137 2.139 8.255 8.255 0 0 0 8.03-.41l13.617-8.63 6.939 6.939-8.628 13.615a8.246 8.246 0 0 0-.413 8.03 42.762 42.762 0 0 1 2.14 5.137 8.152 8.152 0 0 0 5.963 5.373l15.716 3.523v9.814l-15.71 3.522a8.142 8.142 0 0 0-5.968 5.37 42.768 42.768 0 0 1-2.143 5.144 8.15 8.15 0 0 0 .413 8.025l8.63 13.616-6.939 6.94-13.613-8.628a8.246 8.246 0 0 0-8.03-.414 42.877 42.877 0 0 1-5.137 2.14 8.15 8.15 0 0 0-5.375 5.964l-3.523 15.716h-9.814l-3.523-15.717a8.149 8.149 0 0 0-5.372-5.962 42.735 42.735 0 0 1-5.137-2.14 8.245 8.245 0 0 0-8.028.41l-13.618 8.63-6.938-6.94 8.63-13.617a8.148 8.148 0 0 0 .41-8.027 42.747 42.747 0 0 1-2.14-5.137 8.15 8.15 0 0 0-5.964-5.373l-15.715-3.522v-9.814zm-122.896.619C202.66 62.04 217.311 50.1 236.933 50.1h1.76c19.62 0 34.272 11.941 37.324 30.423a2.16 2.16 0 0 1-2.133 2.502H201.74a2.16 2.16 0 0 1-2.133-2.502zm34.92 37.853a63.907 63.907 0 1 1-63.907 63.907 63.907 63.907 0 0 1 63.907-63.907z"/><path d="M203.52 198.923h14.368v14.368a9.051 9.051 0 0 0 9.041 9.041h15.198a9.051 9.051 0 0 0 9.041-9.041v-14.368h14.369a9.052 9.052 0 0 0 9.041-9.041v-15.198a9.052 9.052 0 0 0-9.041-9.041h-14.368v-14.369a9.052 9.052 0 0 0-9.042-9.04H226.93a9.051 9.051 0 0 0-9.04 9.04v14.369H203.52a9.051 9.051 0 0 0-9.041 9.04v15.199a9.052 9.052 0 0 0 9.041 9.04zm2.958-21.28h14.369a9.052 9.052 0 0 0 9.041-9.041v-14.369h9.28v14.369a9.051 9.051 0 0 0 9.041 9.04h14.369v9.28H248.21a9.051 9.051 0 0 0-9.041 9.042v14.368h-9.28v-14.368a9.051 9.051 0 0 0-9.041-9.041h-14.37z"/></svg>