<svg height="64" width="64" xml:space="preserve" xmlns="http://www.w3.org/2000/svg"><g fill="#241F20"><path d="M10.601 29.745a7.127 7.127 0 0 0 7.096-7.81c-.014-.14-.031-.31-.076-.494-.123-.621-.435-1.426-.867-2.371-1.315-2.867-3.829-6.896-6.153-10.009-3.561 4.508-5.358 7.979-6.256 10.163-.016.03-.016.062-.033.092a16.927 16.927 0 0 0-.713 2.125c-.015.045-.015.076-.029.106l-.048.388c-.016.233-.031.449-.031.683-.001 3.935 3.192 7.127 7.11 7.127zm-3.912-8.02c.01-.067.018-.146.026-.214.01-.018.01-.034.017-.06a9.37 9.37 0 0 1 .396-1.175c.01-.016.01-.034.016-.052.498-1.206 1.492-3.126 3.461-5.619 1.286 1.721 2.676 3.949 3.402 5.535.24.522.412.968.48 1.311.026.102.034.196.042.273a3.94 3.94 0 0 1-3.924 4.318 3.94 3.94 0 0 1-3.931-3.94c-.001-.129.007-.249.015-.377zM62.257 26.917c-.025-.052-.052-.095-.079-.156l-.034-.062c-.732-1.646-2.379-1.948-3.222-1.992H38.014c-3.313 0-5 1.106-5 1.106L15.456 39.008c-.464.35-1.703 2.442-.616 4.382 1.083 1.939 4.803.464 4.803.464s12.325-7.985 13.254-8.527c.931-.538 2.25-.463 3.256.932 1.163 2.325-1.78 4.031-1.78 4.031l-10.261 6.693c-2.001 1.305-3.772 1.567-4.654 1.609l-14.465.068c-2.713 0-4.884.619-4.884 2.944 0 3.026 3.412 3.334 3.412 3.334h23.277c.759-.01 3.632-.162 6.373-1.965l15.584-10.271c.051-.033 1.494-.986 4.118-.999a257.67 257.67 0 0 1 5.891.016h.041c.03 0 .066.004.098.004.531.003 2.52-.124 3.479-2.002 2.695-5.429 1.224-10.167-.125-12.804z"/></g></svg>